<?xml version="1.0" encoding="UTF-8" standalone="no"?>
<!-- Created with Inkscape (http://www.inkscape.org/) -->

<svg
   width="32"
   height="32"
   viewBox="0 0 6.3499998 6.35"
   version="1.1"
   id="svg1"
   xmlns="http://www.w3.org/2000/svg"
   xmlns:svg="http://www.w3.org/2000/svg">
  <defs
     id="defs1" />
  <g
     id="layer1">
    <circle
       style="fill:#2b7fff;stroke-width:0.264583;fill-opacity:1"
       id="path2"
       cx="3.175"
       cy="3.175"
       r="3.175" />
    <path
       fill-rule="evenodd"
       d="m 4.8095918,2.9409105 a 2.3151042,2.3151042 0 0 0 -3.27395,0 0.1984375,0.1984375 0 0 1 -0.28072,-0.28046 c 1.05912,-1.05939 2.77627,-1.05939 3.8354,0 a 0.1984375,0.1984375 0 1 1 -0.28073,0.28046 z m -0.56118,0.56118 a 1.5213542,1.5213542 0 0 0 -2.15159,0 0.1984375,0.1984375 0 0 1 -0.28046,-0.28046 1.9182292,1.9182292 0 0 1 2.71251,0 0.1984375,0.1984375 0 0 1 -0.28046,0.28046 z m -0.56144,0.56145 a 0.72760417,0.72760417 0 0 0 -1.02897,0 0.1984375,0.1984375 0 1 1 -0.28046,-0.28072 1.1244792,1.1244792 0 0 1 1.59015,0 0.1984375,0.1984375 0 0 1 -0.28046,0.28045 z m -0.74824,0.28046 a 0.33072917,0.33072917 0 0 1 0.46778,0 0.1984375,0.1984375 0 0 1 0,0.28046 l -0.0939,0.0939 a 0.1984375,0.1984375 0 0 1 -0.28046,0 l -0.0937,-0.0937 a 0.1984375,0.1984375 0 0 1 0,-0.28046 z"
       clip-rule="evenodd"
       id="path3"
       style="fill:#000000;fill-opacity:0.558886;stroke:none;stroke-width:0.265;stroke-dasharray:none;stroke-opacity:1" />
    <path
       fill-rule="evenodd"
       d="m 4.8095918,2.794759 a 2.3151042,2.3151042 0 0 0 -3.27395,0 0.1984375,0.1984375 0 0 1 -0.28072,-0.28046 c 1.05912,-1.05939 2.77627,-1.05939 3.8354,0 a 0.1984375,0.1984375 0 1 1 -0.28073,0.28046 z m -0.56118,0.56118 a 1.5213542,1.5213542 0 0 0 -2.15159,0 0.1984375,0.1984375 0 0 1 -0.28046,-0.28046 1.9182292,1.9182292 0 0 1 2.71251,0 0.1984375,0.1984375 0 0 1 -0.28046,0.28046 z m -0.56144,0.56145 a 0.72760417,0.72760417 0 0 0 -1.02897,0 0.1984375,0.1984375 0 1 1 -0.28046,-0.28072 1.1244792,1.1244792 0 0 1 1.59015,0 0.1984375,0.1984375 0 0 1 -0.28046,0.28045 z m -0.74824,0.28046 a 0.33072917,0.33072917 0 0 1 0.46778,0 0.1984375,0.1984375 0 0 1 0,0.28046 l -0.0939,0.0939 a 0.1984375,0.1984375 0 0 1 -0.28046,0 l -0.0937,-0.0937 a 0.1984375,0.1984375 0 0 1 0,-0.28046 z"
       clip-rule="evenodd"
       id="path1"
       style="stroke-width:0.265;stroke-dasharray:none;stroke:none;stroke-opacity:1;fill:#ffffff;fill-opacity:1" />
  </g>
</svg>
