<?xml version="1.0" encoding="UTF-8" standalone="no"?>
<!-- Created with Inkscape (http://www.inkscape.org/) -->

<svg
   width="24"
   height="24"
   viewBox="0 0 6.3499998 6.35"
   version="1.1"
   id="svg1"
   sodipodi:docname="wifi-marker-shadow.svg"
   inkscape:version="1.4.1-rc (d9e8dc1fe0, 2025-03-10)"
   xmlns:inkscape="http://www.inkscape.org/namespaces/inkscape"
   xmlns:sodipodi="http://sodipodi.sourceforge.net/DTD/sodipodi-0.dtd"
   xmlns="http://www.w3.org/2000/svg"
   xmlns:svg="http://www.w3.org/2000/svg">
  <sodipodi:namedview
     id="namedview1"
     pagecolor="#505050"
     bordercolor="#eeeeee"
     borderopacity="1"
     inkscape:showpageshadow="0"
     inkscape:pageopacity="0"
     inkscape:pagecheckerboard="0"
     inkscape:deskcolor="#505050"
     showgrid="false"
     inkscape:zoom="24.229167"
     inkscape:cx="19.460017"
     inkscape:cy="16.405847"
     inkscape:window-width="2186"
     inkscape:window-height="1433"
     inkscape:window-x="0"
     inkscape:window-y="0"
     inkscape:window-maximized="1"
     inkscape:current-layer="svg1" />
  <defs
     id="defs1" />
  <g
     id="layer1">
    <circle
       style="fill:#2b7fff;stroke-width:0.264583;fill-opacity:1"
       id="path2"
       cx="3.175"
       cy="3.175"
       r="3.175" />
    <path
       fill-rule="evenodd"
       d="m 4.8095918,2.9409105 a 2.3151042,2.3151042 0 0 0 -3.27395,0 0.1984375,0.1984375 0 0 1 -0.28072,-0.28046 c 1.05912,-1.05939 2.77627,-1.05939 3.8354,0 a 0.1984375,0.1984375 0 1 1 -0.28073,0.28046 z m -0.56118,0.56118 a 1.5213542,1.5213542 0 0 0 -2.15159,0 0.1984375,0.1984375 0 0 1 -0.28046,-0.28046 1.9182292,1.9182292 0 0 1 2.71251,0 0.1984375,0.1984375 0 0 1 -0.28046,0.28046 z m -0.56144,0.56145 a 0.72760417,0.72760417 0 0 0 -1.02897,0 0.1984375,0.1984375 0 1 1 -0.28046,-0.28072 1.1244792,1.1244792 0 0 1 1.59015,0 0.1984375,0.1984375 0 0 1 -0.28046,0.28045 z m -0.74824,0.28046 a 0.33072917,0.33072917 0 0 1 0.46778,0 0.1984375,0.1984375 0 0 1 0,0.28046 l -0.0939,0.0939 a 0.1984375,0.1984375 0 0 1 -0.28046,0 l -0.0937,-0.0937 a 0.1984375,0.1984375 0 0 1 0,-0.28046 z"
       clip-rule="evenodd"
       id="path3"
       style="fill:#000000;fill-opacity:0.558886;stroke:none;stroke-width:0.265;stroke-dasharray:none;stroke-opacity:1" />
    <path
       fill-rule="evenodd"
       d="m 4.8095918,2.794759 a 2.3151042,2.3151042 0 0 0 -3.27395,0 0.1984375,0.1984375 0 0 1 -0.28072,-0.28046 c 1.05912,-1.05939 2.77627,-1.05939 3.8354,0 a 0.1984375,0.1984375 0 1 1 -0.28073,0.28046 z m -0.56118,0.56118 a 1.5213542,1.5213542 0 0 0 -2.15159,0 0.1984375,0.1984375 0 0 1 -0.28046,-0.28046 1.9182292,1.9182292 0 0 1 2.71251,0 0.1984375,0.1984375 0 0 1 -0.28046,0.28046 z m -0.56144,0.56145 a 0.72760417,0.72760417 0 0 0 -1.02897,0 0.1984375,0.1984375 0 1 1 -0.28046,-0.28072 1.1244792,1.1244792 0 0 1 1.59015,0 0.1984375,0.1984375 0 0 1 -0.28046,0.28045 z m -0.74824,0.28046 a 0.33072917,0.33072917 0 0 1 0.46778,0 0.1984375,0.1984375 0 0 1 0,0.28046 l -0.0939,0.0939 a 0.1984375,0.1984375 0 0 1 -0.28046,0 l -0.0937,-0.0937 a 0.1984375,0.1984375 0 0 1 0,-0.28046 z"
       clip-rule="evenodd"
       id="path1"
       style="stroke-width:0.265;stroke-dasharray:none;stroke:none;stroke-opacity:1;fill:#ffffff;fill-opacity:1" />
  </g>
</svg>
